<svg width="1286" height="681" viewBox="0 0 1286 681" fill="none" xmlns="http://www.w3.org/2000/svg">
  <path
    d="M234.913 572.443C370.1 655.088 1136.68 727.24 1237.01 374.192C1254.88 254.72 1131.03 11.5054 563.2 41.6834C389.502 49.5211 91.1062 128.369 42.7808 341.544C24.5492 421.969 54.5269 509.283 121.09 557.963C235.152 641.382 477.566 715.338 923.386 651.184"
    stroke="#9DD1E9"
    stroke-width="10"
  />
  <path
    d="M1232.65 208.071C1260.23 237.799 1304.86 324.416 1262.75 433.067"
    stroke="#B8E3E9"
    stroke-width="10"
  />
  <path
    d="M28.2567 259.565C91.4384 131.186 354.339 -63.0525 938.704 28.8633"
    stroke="#7DBAFF"
    stroke-width="10"
  />
  <ellipse
    cx="1246.58"
    cy="457.548"
    rx="18.2632"
    ry="9.06048"
    transform="rotate(90.5134 1246.58 457.548)"
    fill="#3895FF"
  />
  <ellipse
    cx="947.15"
    cy="645.522"
    rx="18.2632"
    ry="9.06048"
    transform="rotate(72.8911 947.15 645.522)"
    fill="#D86DCD"
  />
  <path
    d="M20.0688 268.561C22.6134 265.857 27.149 267.778 26.9776 271.487L26.6273 279.065C26.5734 280.231 27.0317 281.363 27.8819 282.163L33.4066 287.361C36.1108 289.906 34.19 294.442 30.4807 294.27L22.9027 293.92C21.7365 293.866 20.605 294.324 19.8049 295.174L14.6062 300.699C12.0615 303.403 7.52596 301.483 7.69741 297.773L8.04767 290.195C8.10158 289.029 7.64332 287.898 6.79312 287.097L1.2684 281.899C-1.43583 279.354 0.484981 274.819 4.19426 274.99L11.7723 275.34C12.9385 275.394 14.07 274.936 14.87 274.086L20.0688 268.561Z"
    fill="#B8E3E9"
  />
</svg>

